<?xml version="1.0" encoding="UTF-8"?>
<svg id="Layer_1" data-name="Layer 1" xmlns="http://www.w3.org/2000/svg" viewBox="0 0 160 56">
  <defs>
    <style>
      .cls-1 {
        fill: #fff;
      }

      .cls-2 {
        fill: #ed1d24;
      }

      .cls-3 {
        fill: #efefef;
      }
    </style>
  </defs>
  <path class="cls-2" d="M56,20.17C56,9.03,46.97,0,35.83,0H17.95c-1.26,0-2.28,1.02-2.28,2.28V11.16c0,2.49-2.02,4.5-4.5,4.5H2.28c-1.26,0-2.28,1.02-2.28,2.28v18.14c0,11,8.91,19.91,19.91,19.91h3.95c.45,0,.81-.36,.81-.81v-14.85h-4.5c-2.49,0-4.5-2.02-4.5-4.5v-15.66c0-2.49,2.02-4.5,4.5-4.5h15.66c2.49,0,4.5,2.02,4.5,4.5v4.5h-14.85c-.45,0-.81,.36-.81,.81v14.85c9.76,0,15.66,6.39,15.66,13.54v1.31c0,.45,.36,.81,.81,.81h14.05c.45,0,.81-.36,.81-.81v-1.07c-.03-7.15-2.6-13.7-6.85-18.8,4.2-3.7,6.85-9.11,6.85-15.15Z"/>
  <g>
    <path class="cls-3" d="M74.09,33.95c0,3.65,10.34,.77,10.34,7.39,0,.72-.02,5.33-7.14,5.33-6.45,0-7.22-4.02-7.29-5.23h3.82c.35,1.19,1.41,1.98,3.47,1.98,2.51,0,3.37-.55,3.37-1.69,0-3.12-10.34-.87-10.34-7.34,0-3.55,2.63-5.36,6.57-5.36,3.35,0,6.87,1.49,7.04,5.26h-3.77c-.27-1.09-1.22-1.98-3.27-1.98s-2.8,.79-2.8,1.64Z"/>
    <path class="cls-3" d="M98.25,29.44v3.27h-4.24v13.72h-3.77v-13.72h-4.24v-3.27h12.25Z"/>
    <path class="cls-3" d="M100.6,40.03v-10.59h3.77v10.39c0,1.29,.5,3.6,3.75,3.6s3.74-2.31,3.74-3.6v-10.39h3.77v10.59c0,6.65-6.75,6.65-7.51,6.65s-7.51,0-7.51-6.65Z"/>
    <path class="cls-3" d="M126.42,46.43h-8.13V29.44h8.13s7.32-.02,7.32,8.51-7.32,8.48-7.32,8.48Zm-.55-3.27c3.25-.25,4.09-2.68,4.09-5.21s-.84-4.99-4.09-5.23h-3.82v10.44h3.82Z"/>
    <path class="cls-3" d="M135.85,29.44h3.77v16.99h-3.77V29.44Z"/>
    <path class="cls-3" d="M159.08,37.87c0,5.36-3.35,8.8-8.56,8.8s-8.56-3.45-8.56-8.8,3.35-8.8,8.56-8.8,8.56,3.45,8.56,8.8Zm-13.34,0c0,5.13,3.4,5.56,4.79,5.56s4.79-.42,4.79-5.56-3.4-5.56-4.79-5.56-4.79,.42-4.79,5.56Z"/>
  </g>
  <g>
    <path class="cls-1" d="M108.74,9.32h-8.13V26.31h8.13s7.32,.02,7.32-8.48-7.32-8.51-7.32-8.51Zm-.55,13.72h-3.82V13.98c-.85-.56-1.79-.72-2.35-.83l.18-.55h5.99c3.25,.25,4.09,2.68,4.09,5.23s-.84,4.96-4.09,5.21Z"/>
    <path class="cls-1" d="M126.3,9.32h-8.13V26.31h8.13s7.32,.02,7.32-8.48-7.32-8.51-7.32-8.51Zm-.55,13.72h-3.82V13.98c-.85-.56-1.79-.72-2.35-.83l.18-.55h5.99c3.25,.25,4.09,2.68,4.09,5.23s-.84,4.96-4.09,5.21Z"/>
    <polygon class="cls-1" points="85.99 26.31 98.25 26.31 98.25 23.04 89.76 23.04 89.76 19.47 96.96 19.47 96.96 16.19 89.76 16.19 89.76 12.6 98.25 12.6 98.25 9.32 85.99 9.32 85.99 26.31"/>
    <path class="cls-1" d="M78.82,19.95l-.18-.55c.57-.11,1.54-.28,2.4-.87,1.23-.83,1.96-2.22,1.97-3.7,.03-1.01-.23-2-.74-2.88-.5-.84-1.23-1.52-2.11-1.95-1.03-.48-2.16-.71-3.3-.68h-6.87V26.31h3.77v-5.91h4.03l1.98,5.91h4.22l-2.2-6.37h-2.98Zm-1.09-3.06c-.52,.19-1.08,.28-1.64,.27h-2.32v-4.71h2.32c.56-.02,1.11,.08,1.64,.28,.41,.16,.76,.46,.99,.83,.24,.38,.35,.82,.34,1.27,.02,.44-.1,.88-.33,1.25-.23,.37-.58,.65-.99,.8Z"/>
    <path class="cls-1" d="M139.49,12.6v-3.27h-3.77V26.31h3.77V13.98c-.85-.56-1.79-.72-2.35-.83l.18-.55h2.17Z"/>
  </g>
</svg>