<?xml version="1.0" encoding="UTF-8"?>
<svg id="Layer_1" data-name="Layer 1" xmlns="http://www.w3.org/2000/svg" viewBox="0 0 135 56">
  <g>
    <path d="M6.14,36.92c0,5.47,15.51,1.15,15.51,11.08,0,1.08-.04,7.99-10.71,7.99C1.26,56,.11,49.98,0,48.15H5.73c.52,1.78,2.12,2.97,5.21,2.97,3.76,0,5.06-.82,5.06-2.53,0-4.69-15.51-1.3-15.51-11.01,0-5.32,3.94-8.03,9.85-8.03,5.02,0,10.3,2.23,10.56,7.88h-5.65c-.41-1.64-1.82-2.97-4.91-2.97s-4.2,1.19-4.2,2.45Z"/>
    <path d="M42.35,30.16v4.91h-6.36v20.56h-5.65v-20.56h-6.36v-4.91h18.37Z"/>
    <path d="M45.89,46.03v-15.88h5.65v15.58c0,1.93,.74,5.39,5.62,5.39s5.61-3.46,5.61-5.39v-15.58h5.65v15.88c0,9.97-10.11,9.97-11.27,9.97s-11.27,0-11.27-9.97Z"/>
    <path d="M84.59,55.63h-12.2V30.16h12.2s10.97-.04,10.97,12.75-10.97,12.72-10.97,12.72Zm-.82-4.91c4.87-.37,6.14-4.02,6.14-7.81s-1.26-7.47-6.14-7.85h-5.73v15.65h5.73Z"/>
    <path d="M98.72,30.16h5.65v25.47h-5.65V30.16Z"/>
    <path d="M133.57,42.8c0,8.03-5.02,13.2-12.83,13.2s-12.83-5.17-12.83-13.2,5.02-13.2,12.83-13.2,12.83,5.17,12.83,13.2Zm-20.01,0c0,7.7,5.09,8.33,7.18,8.33s7.18-.63,7.18-8.33-5.09-8.33-7.18-8.33-7.18,.63-7.18,8.33Z"/>
  </g>
  <g>
    <path d="M58.08,0h-12.2V25.47h12.2s10.97,.04,10.97-12.72S58.08,0,58.08,0Zm-.82,20.56h-5.73V6.98c-1.27-.84-2.68-1.08-3.52-1.25l.27-.83h8.97c4.87,.37,6.14,4.02,6.14,7.85s-1.26,7.44-6.14,7.81Z"/>
    <path d="M84.41,0h-12.2V25.47h12.2s10.97,.04,10.97-12.72S84.41,0,84.41,0Zm-.82,20.56h-5.73V6.98c-1.27-.84-2.68-1.08-3.52-1.25l.27-.83h8.97c4.87,.37,6.14,4.02,6.14,7.85s-1.26,7.44-6.14,7.81Z"/>
    <polygon points="23.98 25.47 42.35 25.47 42.35 20.56 29.64 20.56 29.64 15.21 40.42 15.21 40.42 10.3 29.64 10.3 29.64 4.91 42.35 4.91 42.35 0 23.98 0 23.98 25.47"/>
    <path d="M13.22,15.93l-.27-.83c.85-.17,2.31-.42,3.6-1.3,1.84-1.25,2.94-3.32,2.96-5.54,.04-1.51-.34-3.01-1.1-4.31-.74-1.27-1.84-2.28-3.17-2.92C13.7,.3,12-.05,10.29,0H0V25.47H5.65v-8.86h6.05l2.96,8.86h6.33l-3.29-9.54h-4.48Zm-1.63-4.59c-.79,.29-1.62,.42-2.46,.4h-3.48V4.68h3.47c.84-.02,1.67,.12,2.45,.42,.62,.25,1.14,.68,1.49,1.25,.36,.57,.53,1.24,.51,1.91,.03,.66-.15,1.32-.5,1.88-.35,.55-.87,.97-1.48,1.2Z"/>
    <path d="M104.19,4.91V0h-5.65V25.47h5.65V6.98c-1.27-.84-2.68-1.08-3.52-1.25l.27-.83h3.25Z"/>
  </g>
</svg>