<svg width="45" height="53" viewBox="0 0 45 53" fill="none" xmlns="http://www.w3.org/2000/svg">
<g clip-path="url(#clip0_349_1099)">
<path d="M45 9.83431V47.3929L7.34242 53V49.0798H4.89227V45.1557H2.44613V41.2355H0V0L39.9508 4.83341L45 9.83431Z" fill="#969696"/>
<path d="M14.4193 22.8989V20.6099C14.4193 18.9309 13.8923 17.8741 12.8502 17.4514C13.8842 16.9649 14.3952 15.9599 14.3952 14.4365V13.268C14.3952 10.9909 13.2405 9.85034 10.911 9.85034H7.34644V24.7015H9.69601V18.6558H10.5248C11.5588 18.6558 12.0697 19.2859 12.0697 20.55V22.883C12.0697 23.4293 12.0939 23.8321 12.1261 24.1033C12.1542 24.2668 12.2105 24.4622 12.2789 24.7015H14.6728C14.5078 24.2987 14.4233 23.7005 14.4233 22.9029L14.4193 22.8989ZM12.0456 14.9669C12.0456 16.0117 11.5749 16.5382 10.6254 16.5382H9.69199V11.9719H10.8467C11.6473 11.9719 12.0456 12.4824 12.0456 13.5073V14.9669Z" fill="white"/>
<path d="M15.8074 9.85425V24.7014H18.1569V9.85425H15.8074Z" fill="white"/>
<path d="M23.0935 9.68677C21.2991 9.68677 20.2088 10.3926 19.7783 11.8004H23.0935C23.9102 11.8004 24.2682 12.2869 24.2682 13.2719V21.2877C24.2682 22.2728 23.9062 22.7593 23.0935 22.7593C22.2808 22.7593 21.9187 22.2728 21.9187 21.2877V13.3716C21.9187 13.248 21.8543 13.1403 21.7577 13.0765L19.734 11.9798C19.6254 12.4026 19.5731 12.8811 19.5731 13.4155V21.1402C19.5731 23.6247 20.7157 24.8689 23.0975 24.8689C25.4792 24.8689 26.6218 23.6247 26.6218 21.1402V13.4155C26.6218 10.931 25.4752 9.68677 23.0975 9.68677H23.0935Z" fill="white"/>
<path d="M40.7514 26.3764H38.599L35.3201 33.132V26.3764H32.9665V41.2276H35.3201V36.454L36.0322 35.2217L38.3375 41.2276H40.7555L37.5047 32.9765L40.7555 26.3804L40.7514 26.3764ZM27.8811 26.2129C25.4953 26.2129 24.3084 27.4531 24.3084 29.9376V37.6663C24.3084 40.1508 25.4953 41.3911 27.8811 41.3911C30.2669 41.3911 31.4537 40.1508 31.4537 37.6663V29.9376C31.4537 27.4531 30.2628 26.2129 27.8811 26.2129ZM29.1001 37.8099C29.1001 38.7909 28.6938 39.2774 27.8811 39.2774C27.0684 39.2774 26.658 38.7909 26.658 37.8099V29.7941C26.658 28.825 27.0644 28.3345 27.8811 28.3345C28.6978 28.3345 29.1001 28.825 29.1001 29.7941V37.8099ZM19.4041 26.2129C17.0223 26.2129 15.8355 27.4531 15.8355 29.9376V37.6663C15.8355 40.1508 17.0223 41.3911 19.4041 41.3911C21.7859 41.3911 22.9808 40.1508 22.9808 37.6663V29.9376C22.9808 27.4531 21.7899 26.2129 19.4041 26.2129ZM20.6272 37.8099C20.6272 38.7909 20.2208 39.2774 19.4041 39.2774C18.5874 39.2774 18.1851 38.7909 18.1851 37.8099V29.7941C18.1851 28.825 18.5914 28.3345 19.4041 28.3345C20.2168 28.3345 20.6272 28.825 20.6272 29.7941V37.8099ZM12.8543 33.3154C13.8681 32.8489 14.3831 31.8439 14.3831 30.3205V29.7941C14.3831 27.517 13.2244 26.3764 10.8949 26.3764H7.34241V41.2276H11.0398C13.4215 41.2276 14.6124 40.0591 14.6124 37.7062V36.4978C14.6124 34.8269 14.029 33.7741 12.8543 33.3154ZM9.68796 28.502H10.8306C11.6352 28.502 12.0295 29.0084 12.0295 30.0334V30.8629C12.0295 31.9077 11.5588 32.4261 10.6093 32.4261H9.68796V28.502ZM12.2588 37.6424C12.2588 38.6154 11.8525 39.102 11.0398 39.102H9.68796V34.5477H10.7461C11.7559 34.5477 12.2588 35.1459 12.2588 36.3463V37.6424Z" fill="white"/>
</g>
<defs>
<clipPath id="clip0_349_1099">
<rect width="45" height="53" fill="white"/>
</clipPath>
</defs>
</svg>
