<svg width="85" height="35" viewBox="0 0 85 35" fill="none" xmlns="http://www.w3.org/2000/svg">
<g clip-path="url(#clip0_349_1107)">
<path d="M44.0687 9.58643V9.6801L43.9741 9.58643H44.0687Z" fill="#919191"/>
<path d="M15.8542 30.0929V24.9663C15.8542 21.2065 14.6767 18.8391 12.3387 17.8938C14.6595 16.8037 15.7984 14.5513 15.7984 11.1449V8.52196C15.7984 3.42515 13.2111 0.870361 7.98943 0.870361H0V34.1295H5.26039V20.5891H7.1213C9.43776 20.5891 10.5809 21.9985 10.5809 24.83V30.0546C10.5809 31.2809 10.6325 32.1836 10.7056 32.7882C10.7657 33.1544 10.8904 33.5972 11.0494 34.1295H16.4086C16.0347 33.2268 15.8542 31.8855 15.8542 30.0972M10.538 12.3286C10.538 14.6662 9.48503 15.8499 7.34907 15.8499H5.26039V5.62227H7.84331C9.63975 5.62227 10.5337 6.76341 10.5337 9.06272V12.3329L10.538 12.3286Z" fill="#A4A4A4"/>
<path d="M24.2305 0.870361H18.9658V34.1252H24.2305V0.870361Z" fill="#A4A4A4"/>
<path d="M43.1962 8.84991V26.1501C43.1962 31.7153 40.6348 34.4957 35.297 34.4957C29.9593 34.4957 27.3936 31.711 27.3936 26.1501V8.84991C27.3936 7.6449 27.5139 6.57614 27.7546 5.63087L32.2929 8.08773C32.5164 8.22824 32.6582 8.47095 32.6582 8.74772V26.478C32.6582 28.6836 33.4662 29.7694 35.297 29.7694C37.1279 29.7694 37.9315 28.6793 37.9315 26.478V8.52204C37.9315 6.32066 37.1236 5.23062 35.297 5.23062H27.8663C28.829 2.07545 31.2744 0.5 35.297 0.5C40.6348 0.5 43.1962 3.28472 43.1962 8.84991Z" fill="#A4A4A4"/>
<path d="M46.441 20.6062C46.9137 20.6062 47.0556 20.372 47.1415 20.1293H48.7746C48.5769 20.8404 48.0096 21.7814 46.4023 21.7814C44.6445 21.7814 43.9569 20.6019 43.9569 19.2394C43.9569 17.8768 44.6746 16.6292 46.4496 16.6292C48.2245 16.6292 48.8262 17.8683 48.8262 19.1372L48.809 19.5545H45.6416C45.6416 20.0824 45.8436 20.6104 46.441 20.6104V20.6062ZM47.1673 18.6177C47.1544 18.1365 46.9997 17.7278 46.4367 17.7278C45.8737 17.7278 45.6889 18.1451 45.6631 18.6177H47.1673ZM47.1673 18.6177L49.6858 18.2685C49.6858 17.6256 49.6858 17.1189 49.6729 16.7357H51.306C51.3275 16.9017 51.3447 17.3233 51.3447 17.5745C51.5252 17.1061 51.985 16.6335 52.8532 16.6335V18.2004C51.8217 18.1664 51.3619 18.4261 51.3619 19.5843V21.6749H49.69V18.2685L47.1673 18.6177ZM53.3474 20.5593H53.3775C53.5107 19.6822 53.8459 18.49 54.2069 17.0891H55.8573L54.2112 22.0283H52.3804L50.7774 17.0891H52.5695C52.9219 18.4431 53.2357 19.7886 53.3431 20.5593H53.3474ZM56.4417 15.1772H58.1135V16.4334H56.4417V15.1772ZM58.1135 17.0891V22.0283H56.4417V17.0891H58.1135ZM62.1104 20.2953H63.7221C63.5802 21.2491 62.9657 22.1305 61.3841 22.1305C59.7037 22.1305 58.9774 21.0703 58.9774 19.5885C58.9774 18.0258 59.91 16.9784 61.4615 16.9784C63.2579 16.9784 63.7006 18.2047 63.7264 18.8434H62.1061C62.0631 18.4516 61.8998 18.1408 61.4486 18.1408C60.9242 18.1408 60.6836 18.6177 60.6836 19.5332C60.6836 20.5934 60.9629 20.9809 61.4357 20.9809C61.8697 20.9809 62.0245 20.6743 62.1104 20.2953ZM66.782 20.9596C67.2548 20.9596 67.3966 20.7254 67.4825 20.4827H69.1157C68.918 21.1938 68.3507 22.1348 66.7433 22.1348C64.9856 22.1348 64.2979 20.9553 64.2979 19.5928C64.2979 18.2302 65.0157 16.9826 66.7906 16.9826C68.5656 16.9826 69.1715 18.2217 69.1715 19.4906L69.1544 19.9079H65.9869C65.9869 20.4359 66.1889 20.9638 66.7863 20.9638L66.782 20.9596ZM67.5083 18.9711C67.4954 18.49 67.3407 18.0812 66.7777 18.0812C66.2147 18.0812 66.0299 18.4985 66.0041 18.9711H67.5083Z" fill="white"/>
<path d="M40.8067 7.40636C42.1777 7.40636 43.2263 8.13874 43.2263 9.44594C43.2263 10.8638 42.1476 11.5494 40.7336 11.5494H39.7452V13.8913H38.0347V7.40636H40.811H40.8067ZM39.7409 8.66247V10.289H40.5187C41.1118 10.289 41.4943 10.0506 41.4943 9.46297C41.4943 8.87537 41.0989 8.66247 40.5402 8.66247H39.7366H39.7409ZM48.6027 12.3754C48.6027 12.9886 48.6027 13.5251 48.6156 13.8913H46.9825C46.9567 13.7593 46.9481 13.5208 46.9395 13.359C46.6215 13.8359 46.196 13.9977 45.5814 13.9977C44.5285 13.9977 43.9913 13.3505 43.9913 12.2221V8.95201H45.6588V11.9454C45.6588 12.4095 45.8049 12.7246 46.2476 12.7246C46.6902 12.7246 46.9266 12.4606 46.9266 11.7027V8.95201H48.5984V12.3754H48.6027ZM49.7029 7.04443H51.3747V9.41187C51.5896 9.12659 51.9807 8.84556 52.7156 8.84556C53.992 8.84556 54.6754 9.88877 54.6754 11.2982C54.6754 12.8438 53.9319 13.9977 52.548 13.9977C51.8475 13.9977 51.5467 13.7508 51.349 13.4825C51.3447 13.6145 51.3275 13.7635 51.3017 13.8913H49.6857C49.6943 13.4612 49.6986 12.8481 49.6986 12.3712V7.04443H49.7029ZM52.9778 11.3578C52.9778 10.5615 52.7414 10.0761 52.1397 10.0761C51.4994 10.0761 51.306 10.5104 51.306 11.4302C51.306 12.2818 51.5037 12.7885 52.1311 12.7885C52.707 12.7885 52.9778 12.2605 52.9778 11.3578ZM55.5263 13.8913V7.04443H57.1981V13.8913H55.5263ZM58.2983 7.04443H59.9701V8.30054H58.2983V7.04443ZM59.9701 8.95627V13.8955H58.2983V8.95627H59.9701ZM62.2909 12.3584C62.3554 12.7076 62.6261 12.9034 63.0516 12.9034C63.4384 12.9034 63.6232 12.7757 63.6232 12.5245C63.6232 12.2605 63.3825 12.1668 62.725 11.9965C61.1563 11.6133 60.8727 11.1065 60.8727 10.3955C60.8727 9.68438 61.3712 8.84556 62.9657 8.84556C64.5601 8.84556 65.0586 9.62477 65.1059 10.3742H63.5673C63.533 10.1698 63.4126 9.9058 62.9141 9.9058C62.5918 9.9058 62.4413 10.0378 62.4413 10.2464C62.4413 10.4551 62.6132 10.553 63.3696 10.7276C64.8609 11.081 65.2348 11.6047 65.2348 12.3882C65.2348 13.325 64.4956 14.002 63.0043 14.002C61.513 14.002 60.8168 13.3207 60.718 12.3627H62.2866L62.2909 12.3584ZM67.6716 7.04443V9.48C67.908 9.14788 68.3292 8.84556 69.0426 8.84556C70.0268 8.84556 70.6499 9.43316 70.6499 10.6808V13.8913H68.991V10.8894C68.991 10.404 68.8406 10.1102 68.3679 10.1102C67.8006 10.1102 67.6716 10.5275 67.6716 11.1747V13.8913H65.9998V7.04443H67.6716ZM71.7459 7.04443H73.4177V8.30054H71.7459V7.04443ZM73.4177 8.95627V13.8955H71.7459V8.95627H73.4177ZM74.5179 8.95627H76.1467C76.1725 9.06272 76.194 9.34374 76.1983 9.52258C76.396 9.20323 76.83 8.84556 77.5864 8.84556C78.6093 8.84556 79.1809 9.52684 79.1809 10.6765V13.8913H77.5091V10.9149C77.5091 10.4253 77.3802 10.1102 76.8945 10.1102C76.4561 10.1102 76.2026 10.3359 76.2026 11.081V13.8955H74.5308V10.3614C74.5308 9.6418 74.5265 9.25859 74.5179 8.95627ZM84.9828 13.2611C84.9828 14.8408 84.3768 15.8159 82.4386 15.8159C80.5003 15.8159 80.1866 14.8408 80.135 14.1936H81.7853C81.8541 14.4874 82.0647 14.679 82.5159 14.679C83.1992 14.679 83.3454 14.2787 83.3454 13.4527V13.1759C83.0961 13.5847 82.662 13.7848 82.0303 13.7848C80.771 13.7848 80.0404 12.7799 80.0404 11.3961C80.0404 9.8547 80.9473 8.84556 82.142 8.84556C82.9285 8.84556 83.2551 9.15639 83.3497 9.39484C83.354 9.28413 83.3883 9.04143 83.4055 8.95627H85.0043C84.9957 9.28839 84.9871 9.80786 84.9871 10.4295V13.2611H84.9828ZM81.7466 11.3365C81.7466 12.1157 82.0475 12.5713 82.5632 12.5713C83.2078 12.5713 83.384 12.137 83.384 11.3194C83.384 10.5019 83.2981 10.0633 82.589 10.0633C82.1248 10.0633 81.7466 10.404 81.7466 11.3365Z" fill="white"/>
<path d="M39.6076 19.9462C39.7022 20.4912 39.9987 20.7765 40.6262 20.7765C41.2536 20.7765 41.4814 20.5381 41.4814 20.1591C41.4814 19.6907 41.172 19.4991 40.2179 19.2607C38.5031 18.8306 38.0647 18.2004 38.0647 17.3233C38.0647 16.1481 38.9888 15.3987 40.4886 15.3987C42.1862 15.3987 42.9383 16.246 43.02 17.302H41.3826C41.3267 16.9273 41.1419 16.5739 40.4844 16.5739C40.0159 16.5739 39.7537 16.7698 39.7537 17.1359C39.7537 17.5277 40.0245 17.6554 40.9571 17.8981C42.7664 18.3708 43.1962 19.0435 43.1962 19.9718C43.1962 21.1384 42.3238 21.9687 40.5488 21.9687C38.9243 21.9687 38.0647 21.1895 37.953 19.9462H39.6033H39.6076Z" fill="white"/>
<path d="M51.2845 25.0176H49.6127V31.8644H51.2845V25.0176Z" fill="#A4A4A4"/>
<path d="M53.9061 27.6106H46.9954V29.267H53.9061V27.6106Z" fill="#A4A4A4"/>
<path d="M60.6063 25.0176H58.9344V31.8644H60.6063V25.0176Z" fill="#A4A4A4"/>
<path d="M63.2278 27.6106H56.3171V29.267H63.2278V27.6106Z" fill="#A4A4A4"/>
</g>
<defs>
<clipPath id="clip0_349_1107">
<rect width="85" height="34" fill="white" transform="translate(0 0.5)"/>
</clipPath>
</defs>
</svg>
