<svg width="84" height="33" viewBox="0 0 84 33" fill="none" xmlns="http://www.w3.org/2000/svg">
<g clip-path="url(#clip0_349_1083)">
<path d="M58.9926 10.646L60.3319 15.2044H59.1786L58.9761 14.4523H57.5748L57.3847 15.2044H56.2687L57.6079 10.646H58.9968H58.9926ZM57.8022 13.5802H58.7487L58.2693 11.7784L57.8022 13.5802Z" fill="white"/>
<path d="M63.0931 10.5386C63.8743 10.5386 64.3496 10.8527 64.6183 11.1709L64.0066 11.8982C63.7751 11.6709 63.5229 11.5139 63.1551 11.5139C62.5764 11.5139 62.2416 11.8817 62.2416 12.9066C62.2416 13.9316 62.6012 14.3366 63.1137 14.3366C63.5477 14.3366 63.8536 14.0845 63.9446 13.4398H62.9815V12.5678H64.9738C64.9862 12.6876 64.9945 12.8157 64.9945 12.9604C64.9945 14.5349 64.2628 15.3119 63.0724 15.3119C61.882 15.3119 61.1669 14.5556 61.1669 12.9356C61.1669 11.3155 61.9068 10.5386 63.0972 10.5386H63.0931Z" fill="white"/>
<path d="M66.3625 10.646H69.3634V11.642H67.4703V12.4561H69.3138V13.3282H67.4703V14.2126H69.3676V15.2086H66.3584V10.6501L66.3625 10.646Z" fill="white"/>
<path d="M73.2861 13.1628V10.646H74.3195V15.2044H73.3151L71.8518 12.7V15.2044H70.8102V10.646H71.9221L73.2861 13.1628Z" fill="white"/>
<path d="M79.1474 11.1709L78.5232 11.8983C78.3041 11.671 78.0561 11.5139 77.7172 11.5139C77.1757 11.5139 76.8574 11.8817 76.8574 12.9315C76.8574 13.9812 77.1716 14.3449 77.7172 14.3449C78.0644 14.3449 78.3083 14.1795 78.5232 13.9605L79.1474 14.6837C78.8745 14.9978 78.4075 15.3202 77.6386 15.3202C76.4647 15.3202 75.6959 14.5639 75.6959 12.9315C75.6959 11.299 76.4647 10.5427 77.6386 10.5427C78.4075 10.5427 78.8745 10.8568 79.1474 11.175V11.1709Z" fill="white"/>
<path d="M81.4373 13.1339L79.9492 10.6501H81.1851L81.9994 12.0677L82.8261 10.6501H84L82.5492 13.1339V15.2086H81.4373V13.1339Z" fill="white"/>
<path d="M59.0009 20.0232V18.3081H60.1128V22.8665H59.0009V21.0192H57.7154V22.8665H56.6035V18.3081H57.7154V20.0232H59.0009Z" fill="white"/>
<path d="M64.0024 18.3081L65.3375 22.8665H64.1842L63.9817 22.1144H62.5805L62.3903 22.8665H61.2743L62.6094 18.3081H63.9982H64.0024ZM62.8119 21.2424H63.7585L63.279 19.4405L62.8119 21.2424Z" fill="white"/>
<path d="M68.979 20.8249V18.3081H70.0124V22.8665H69.0079L67.5447 20.3621V22.8665H66.5031V18.3081H67.615L68.979 20.8249Z" fill="white"/>
<path d="M71.4343 20.5893C71.4343 18.6428 71.9717 18.2378 73.2778 18.2378C74.584 18.2378 75.1338 18.6428 75.1338 20.5893C75.1338 22.5359 74.5799 22.9285 73.2778 22.9285C71.9758 22.9285 71.4343 22.5235 71.4343 20.5893ZM72.5297 20.5893C72.5297 21.7754 72.7116 21.9573 73.2737 21.9573C73.8359 21.9573 74.026 21.7754 74.026 20.5893C74.026 19.4032 73.8441 19.209 73.2737 19.209C72.7033 19.209 72.5297 19.3908 72.5297 20.5893Z" fill="white"/>
<path d="M78.0561 19.1925V21.9863H78.7795V22.8707H76.2581V21.9863H76.9897V19.1925H76.2581V18.3081H78.7795V19.1925H78.0561Z" fill="white"/>
<path d="M0 0.537354H10.4452C16.2817 0.537354 19.5182 3.57906 19.5182 8.54249C19.5182 12.3859 17.6788 15.8327 13.0204 16.6344V16.7253C17.3853 17.0849 19.0263 19.362 19.1751 24.2841L19.2743 27.7722C19.3239 29.5162 19.6422 30.9461 20.5185 32.467H17.0712C16.3354 31.3511 16.1907 29.6939 16.1411 27.9953L16.0419 25.3132C15.8477 19.6802 14.7192 17.5188 9.07706 17.5188H3.13729V32.467H0V0.537354ZM3.13729 15.8946H8.53144C13.4833 15.8946 16.3767 13.415 16.3767 9.212C16.3767 5.32308 14.5621 2.3351 8.87452 2.3351H3.13729V15.8946Z" fill="white"/>
<path d="M23.755 1.0083H26.8055V32.4627H23.755V1.0083Z" fill="white"/>
<path d="M41.6652 0C48.8243 0 52.9825 5.19073 52.9825 16.6384C52.9825 28.0862 48.8243 33 41.6652 33C34.506 33 30.4635 27.9456 30.4635 16.5021C30.4635 5.05848 34.506 0 41.6652 0ZM41.6486 31.0741C46.6501 31.0741 49.56 26.8587 49.56 16.531C49.56 6.20326 46.7286 1.97545 41.7272 1.97545C36.7257 1.97545 33.7413 6.20326 33.7413 16.531C33.7413 26.8587 36.6513 31.0741 41.6528 31.0741H41.6486Z" fill="white"/>
</g>
<defs>
<clipPath id="clip0_349_1083">
<rect width="84" height="33" fill="white"/>
</clipPath>
</defs>
</svg>
