<svg width="62" height="53" viewBox="0 0 62 53" fill="none" xmlns="http://www.w3.org/2000/svg">
<g clip-path="url(#clip0_349_1058)">
<path d="M62 0.5H0V52.5H62V0.5Z" fill="#B3B3B3"/>
<path d="M0 0.5L33.9438 6.64002V45.5741L0 52.5V0.5Z" fill="#595959"/>
<path d="M24.2963 40.8488V34.8457C24.2963 30.4447 22.9495 27.6764 20.2561 26.566C22.9245 25.2883 24.2412 22.6569 24.2412 18.6667V15.5992C24.2412 9.62649 21.2523 6.64014 15.2446 6.64014H6.06274V45.5742H12.1256V29.7146H14.2533C16.9218 29.7146 18.2385 31.3726 18.2385 34.6834V40.793C18.2385 42.233 18.2935 43.2926 18.3736 43.9974C18.4537 44.4334 18.5889 44.9455 18.7792 45.5742H24.9471C24.5166 44.5146 24.3013 42.9428 24.3013 40.8488H24.2963ZM18.1834 20.0508C18.1834 22.7938 16.9718 24.178 14.5187 24.178H12.1206V12.2021H15.0844C17.1571 12.2021 18.1834 13.5305 18.1834 16.2228V20.0508Z" fill="white"/>
<path d="M33.9437 6.64014H27.8809V45.5793H33.9437V6.64014Z" fill="white"/>
<path d="M46.8453 5.87451C42.2243 5.87451 39.4057 7.73021 38.2992 11.4416H46.8453C48.948 11.4416 49.8792 12.7244 49.8792 15.3152V36.9244C49.8792 39.5153 48.948 40.7981 46.8453 40.7981C44.7426 40.7981 43.8114 39.5153 43.8114 36.9244V15.9845C43.8114 15.3862 43.4759 14.8437 42.9502 14.575L38.124 12.0957C37.8737 13.1604 37.7485 14.357 37.7485 15.6955V36.5391C37.7485 43.0847 40.7023 46.3601 46.8403 46.3601C52.9782 46.3601 55.932 43.0847 55.932 36.5391V15.6955C55.932 9.14986 52.9782 5.87451 46.8403 5.87451H46.8453Z" fill="white"/>
</g>
<defs>
<clipPath id="clip0_349_1058">
<rect width="62" height="52" fill="white" transform="translate(0 0.5)"/>
</clipPath>
</defs>
</svg>
