<svg width="72" height="35" viewBox="0 0 72 35" fill="none" xmlns="http://www.w3.org/2000/svg">
<g clip-path="url(#clip0_349_1119)">
<path d="M12.3123 23.2397C12.3649 23.231 12.3955 23.2222 12.4306 23.2222C14.252 23.2222 16.0735 23.2134 17.8949 23.2353C18.74 23.2485 19.5675 23.4019 20.3338 23.7876C21.4984 24.3706 22.1333 25.3305 22.2909 26.6148C22.4048 27.5265 22.3172 28.4163 21.9538 29.2623C21.6517 29.968 21.1525 30.4983 20.487 30.8797C20.4213 30.9191 20.3556 30.9586 20.29 30.998C20.2768 31.0068 20.2681 31.0243 20.2418 31.0594C21.0299 32.3042 21.8268 33.5534 22.6368 34.8377C22.5361 34.8465 22.4705 34.8596 22.4092 34.8596C21.4546 34.8596 20.5045 34.8596 19.55 34.864C19.3749 34.864 19.2742 34.807 19.1953 34.6536C18.7006 33.6937 18.1883 32.7425 17.6935 31.7826C17.6147 31.6336 17.5271 31.5766 17.3608 31.5766C16.739 31.5854 16.1173 31.5854 15.4955 31.5766C15.2941 31.5766 15.2328 31.6336 15.2328 31.8396C15.2416 32.7338 15.2328 33.628 15.2328 34.5221V34.8421H12.3036V23.231L12.3123 23.2397ZM15.2416 27.4125C15.2416 27.9648 15.2416 28.5215 15.2416 29.0738C15.2416 29.2184 15.2722 29.2973 15.4386 29.2929C16.2705 29.2754 17.1068 29.2842 17.9387 29.2447C18.3415 29.2272 18.7268 29.0826 19.0158 28.7801C19.6244 28.1445 19.677 27.3862 19.4011 26.5973C19.134 25.839 18.4948 25.5891 17.768 25.5584C16.9973 25.5234 16.218 25.5541 15.443 25.5453C15.2853 25.5453 15.2372 25.5979 15.2372 25.7513C15.2416 26.3036 15.2372 26.8603 15.2372 27.4125H15.2416Z" fill="white"/>
<path d="M48.7108 23.2311H51.6488V28.0044H56.5001V27.5442C56.5001 26.1898 56.5001 24.8353 56.4957 23.4809C56.4957 23.2881 56.5352 23.2092 56.7497 23.2136C57.6342 23.2267 58.5186 23.2179 59.4206 23.2179C59.4293 23.3187 59.4381 23.402 59.4381 23.4853C59.4381 27.176 59.4381 30.8623 59.4425 34.5529C59.4425 34.7896 59.3899 34.8773 59.136 34.8729C58.361 34.8554 57.586 34.8685 56.811 34.8685H56.5045V30.367H51.6619V34.8554C51.5437 34.8598 51.4517 34.8685 51.3641 34.8685C50.5804 34.8685 49.7967 34.8598 49.0129 34.8729C48.7633 34.8773 48.702 34.7984 48.702 34.5573C48.7108 32.0019 48.7064 29.4465 48.7064 26.8867C48.7064 25.769 48.7064 24.6556 48.7064 23.5379V23.2311H48.7108Z" fill="white"/>
<path d="M7.81128 15.2842H2.96866V19.8033H0.0438232V8.18774H2.95114C2.95552 8.28856 2.96428 8.38499 2.96428 8.4858C2.96428 9.88405 2.96866 11.2823 2.9599 12.6805C2.9599 12.9172 3.02558 12.983 3.26202 12.983C4.68503 12.9742 6.10366 12.9742 7.52667 12.983C7.75436 12.983 7.81128 12.9172 7.81128 12.6937C7.80252 11.2867 7.8069 9.87967 7.8069 8.47265V8.19213H10.7274V19.7989H7.81128V15.2798V15.2842Z" fill="white"/>
<path d="M24.7955 19.8166C24.1518 19.8166 23.552 19.8166 22.9477 19.8166C22.5974 19.8166 22.2472 19.8078 21.9013 19.8166C21.7305 19.821 21.6473 19.7772 21.586 19.6062C21.3758 19.0232 21.135 18.449 20.9249 17.8705C20.8636 17.7039 20.776 17.6601 20.6052 17.6601C19.0552 17.6688 17.5053 17.6645 15.9553 17.6601C15.7933 17.6601 15.7145 17.7083 15.6532 17.8617C15.4255 18.4578 15.1847 19.0495 14.9395 19.6369C14.9088 19.707 14.8256 19.8035 14.7643 19.8035C13.8098 19.8122 12.8597 19.8122 11.8745 19.8122C11.9052 19.7158 11.9227 19.6457 11.9533 19.5799C13.3544 16.332 14.7512 13.084 16.1523 9.83602C16.3625 9.3451 16.5814 8.85418 16.7828 8.35888C16.8397 8.223 16.9142 8.16602 17.063 8.16602C17.9475 8.1704 18.8319 8.17478 19.7208 8.16602C19.8784 8.16602 19.9397 8.23615 19.9966 8.36764C20.8767 10.4672 21.7612 12.5668 22.6412 14.6663C23.3287 16.3057 24.0161 17.945 24.6991 19.5799C24.7254 19.6413 24.7473 19.7026 24.7955 19.8122V19.8166ZM16.5902 15.4246H19.9747C19.4187 13.9825 18.8713 12.5712 18.3284 11.1598C18.3065 11.1598 18.289 11.1598 18.2671 11.1641C17.711 12.5755 17.1594 13.9825 16.5902 15.4246Z" fill="white"/>
<path d="M23.7971 34.8289C25.4653 30.9629 27.1335 27.0926 28.8017 23.2266H31.8317C33.4561 27.0926 35.0849 30.9586 36.7268 34.8684H36.0175C35.3038 34.8684 34.5857 34.8596 33.872 34.8728C33.64 34.8772 33.548 34.7939 33.4736 34.5879C33.2722 34.0268 33.0445 33.4789 32.8431 32.9179C32.7862 32.7644 32.7074 32.7118 32.5454 32.7118C30.9954 32.7162 29.4454 32.7162 27.8998 32.7118C27.7159 32.7118 27.6283 32.7732 27.5626 32.9442C27.3437 33.5227 27.116 34.1013 26.8752 34.6711C26.8402 34.75 26.7307 34.8552 26.6563 34.8552C25.728 34.864 24.7998 34.8596 23.8716 34.8552C23.8584 34.8552 23.8409 34.8421 23.7971 34.8202V34.8289ZM31.9017 30.4808C31.3456 29.0431 30.8027 27.6361 30.2554 26.2291C30.2335 26.2291 30.2072 26.2291 30.1853 26.2334C29.6293 27.6405 29.0776 29.0475 28.5128 30.4808H31.9017Z" fill="white"/>
<path d="M11.1783 24.8484C10.6178 25.5234 10.0793 26.1765 9.52756 26.8427C8.96274 26.343 8.34099 25.9968 7.64043 25.7732C6.10358 25.2867 4.52732 25.7557 3.67351 26.9698C2.25926 28.9774 3.19188 32.0763 5.95033 32.5015C6.82165 32.6373 7.63605 32.3831 8.41105 32.0062C8.47235 31.9755 8.51613 31.8396 8.51613 31.7519C8.52489 30.9191 8.52051 30.0819 8.52051 29.2491V28.9598H11.0425C11.0469 29.0563 11.06 29.1527 11.06 29.2491C11.06 30.586 11.06 31.9229 11.0644 33.2641C11.0644 33.4395 11.0075 33.5403 10.8586 33.6323C9.37432 34.5397 7.76303 35.0569 6.02039 34.9911C3.5334 34.8947 1.57621 33.8296 0.534132 31.4933C-0.823202 28.4601 0.433426 24.844 3.88368 23.586C6.3225 22.6918 8.62997 23.0863 10.7711 24.524C10.9024 24.6117 11.025 24.7256 11.1783 24.8484Z" fill="white"/>
<path d="M37.8478 34.8509V23.2179H38.0974C39.7393 23.2179 41.3812 23.2047 43.0275 23.2223C43.9777 23.231 44.9059 23.3757 45.7597 23.8447C46.8938 24.4671 47.4454 25.4621 47.568 26.7157C47.6293 27.3512 47.6074 27.9912 47.4454 28.618C47.0382 30.1828 45.9918 31.077 44.4549 31.4145C43.9295 31.5285 43.3778 31.5548 42.8393 31.5811C42.2438 31.6074 41.6483 31.5942 41.0528 31.5811C40.8514 31.5811 40.7901 31.6424 40.7901 31.844C40.7989 32.747 40.7901 33.6499 40.7989 34.5529C40.7989 34.7896 40.7463 34.8772 40.4924 34.8728C39.7086 34.8553 38.9249 34.8685 38.1411 34.8641C38.0492 34.8641 37.9572 34.8553 37.8478 34.8509ZM40.7901 27.4038C40.7901 27.9561 40.7901 28.5128 40.7901 29.0651C40.7901 29.2273 40.8427 29.293 41.0091 29.2886C41.6965 29.2711 42.3883 29.2886 43.0757 29.2536C44.1046 29.201 44.6957 28.6574 44.814 27.6362C44.9234 26.6631 44.525 25.7207 43.3165 25.598C42.524 25.5147 41.7184 25.5541 40.9215 25.5541C40.8777 25.5541 40.7989 25.6944 40.7945 25.7689C40.7857 26.3124 40.7901 26.8603 40.7901 27.4038Z" fill="white"/>
<path d="M60.5677 23.2223C60.9005 23.2223 61.1895 23.2223 61.4741 23.2223C62.0608 23.2223 62.6475 23.2311 63.2343 23.218C63.44 23.2136 63.5495 23.2837 63.6458 23.4634C64.4777 24.9888 65.3184 26.5054 66.1591 28.022C66.2029 28.1009 66.2554 28.1798 66.3255 28.3025C66.5488 27.8949 66.7546 27.5135 66.956 27.1366C67.6303 25.8873 68.3046 24.6381 68.9876 23.3933C69.0314 23.3144 69.1452 23.2267 69.2284 23.2267C70.1129 23.2136 70.9973 23.2223 71.8862 23.2223C71.9081 23.2223 71.9343 23.2355 71.9912 23.2486C71.838 23.5379 71.6935 23.8229 71.5403 24.1034C70.3187 26.3914 69.0971 28.6795 67.8798 30.9675C67.8229 31.0727 67.7966 31.2086 67.7966 31.3313C67.7923 32.3964 67.7966 33.4615 67.7966 34.5267V34.851H64.8631V34.5574C64.8631 33.5273 64.8674 32.4929 64.8587 31.4628C64.8587 31.3094 64.8193 31.1384 64.7492 31.0069C63.405 28.4954 62.0521 25.9882 60.6991 23.481C60.6641 23.4152 60.629 23.3451 60.5677 23.2267V23.2223Z" fill="white"/>
<path d="M33.7932 19.8034H25.9425C25.9382 19.7201 25.925 19.6325 25.925 19.5404C25.925 15.8454 25.925 12.1459 25.9207 8.45086C25.9207 8.22732 25.9776 8.15719 26.2053 8.16157C27.0065 8.17472 27.8034 8.16595 28.6047 8.16595C28.6791 8.16595 28.7535 8.17472 28.8499 8.1791V17.3444H29.1432C30.5969 17.3444 32.0549 17.3488 33.5086 17.34C33.7319 17.34 33.8019 17.397 33.7976 17.6249C33.7844 18.3394 33.7932 19.0539 33.7932 19.799V19.8034Z" fill="white"/>
<path d="M46.4296 15.429C45.5145 15.0958 44.6038 14.7627 43.6755 14.4252C43.7456 13.8335 43.6755 13.268 43.4172 12.7333C42.9443 11.7558 42.1693 11.1641 41.0966 11.0326C39.9538 10.8923 39.0037 11.2956 38.3119 12.2336C38.198 12.3914 38.1105 12.4089 37.9397 12.3432C37.099 12.0232 36.254 11.7208 35.4089 11.4139C36.4423 8.99441 39.5992 7.26742 42.7342 8.42021C46.1757 9.68257 47.1214 13.2549 46.4252 15.4334L46.4296 15.429Z" fill="white"/>
<path d="M46.0355 16.5685C44.7526 19.3255 41.3637 20.7588 38.3425 19.4307C35.2119 18.0544 34.3362 14.6793 35.0061 12.5491C35.9212 12.8822 36.8319 13.2153 37.7514 13.5484C37.6507 14.3856 37.839 15.1352 38.3381 15.797C39.5422 17.3925 41.9372 17.375 43.1194 15.7532C43.2377 15.5866 43.3384 15.5735 43.5179 15.6436C44.3498 15.9592 45.1905 16.2573 46.0399 16.5685H46.0355Z" fill="white"/>
<path d="M26.3717 5.20723H25.3734C25.3734 5.11518 25.3603 5.02752 25.3603 4.93547C25.3603 4.38318 25.3646 3.82652 25.3603 3.27423C25.3559 2.81399 25.137 2.55977 24.7298 2.52032C24.3094 2.47648 23.9591 2.72194 23.8672 3.14273C23.8322 3.3093 23.8234 3.48024 23.819 3.65119C23.8146 4.11142 23.819 4.57166 23.819 5.0319C23.819 5.14148 23.819 5.23791 23.6658 5.23791C23.3943 5.23791 23.1228 5.23791 22.8339 5.23791V1.64806H23.8059C23.8146 1.819 23.8234 1.98556 23.8322 2.22226C24.1781 1.74449 24.6028 1.56477 25.1326 1.57792C25.6843 1.59546 26.0564 1.86722 26.2885 2.36252C26.7789 1.66559 27.335 1.44204 28.018 1.63491C28.5172 1.77517 28.828 2.12583 28.8587 2.61675C28.9068 3.47147 28.8718 4.33497 28.8718 5.23353C28.5785 5.23353 28.2895 5.2423 28.0049 5.22038C27.9611 5.22038 27.8954 5.06697 27.8954 4.98369C27.8866 4.39633 27.8954 3.80898 27.8866 3.22163C27.8866 2.94111 27.7859 2.69565 27.5101 2.5773C27.2343 2.46333 26.954 2.48087 26.7132 2.66058C26.4724 2.84029 26.3761 3.10328 26.3717 3.39696C26.3717 3.90103 26.3717 4.40072 26.3717 4.90479V5.20723Z" fill="white"/>
<path d="M0.0218506 0.512808C0.380887 0.512808 0.691761 0.504042 1.00701 0.521574C1.07707 0.521574 1.16902 0.626772 1.19529 0.701286C1.5587 1.67436 1.90898 2.64744 2.26364 3.62051C2.3118 3.75201 2.36872 3.8835 2.44316 4.07198C2.69273 3.39697 2.91604 2.78331 3.13934 2.16966C3.31448 1.68313 3.494 1.19659 3.66476 0.70567C3.7173 0.552257 3.79174 0.495275 3.95812 0.504042C4.23396 0.517191 4.51419 0.504042 4.82944 0.504042C4.62365 1.02564 4.431 1.51657 4.23834 2.0031C3.83552 3.01124 3.42832 4.02377 3.03426 5.03191C2.97734 5.17655 2.89852 5.22038 2.75403 5.22477C1.87833 5.25545 1.87833 5.25983 1.5587 4.43579C1.0902 3.25232 0.621705 2.06008 0.148827 0.863465C0.109421 0.762651 0.0743925 0.657454 0.0218506 0.512808Z" fill="white"/>
<path d="M16.8484 5.2335C16.8484 4.5804 16.8484 3.97551 16.8484 3.37063C16.8484 2.80081 16.6207 2.52029 16.1435 2.50714C15.6574 2.49399 15.2984 2.85779 15.2897 3.38816C15.2809 3.98428 15.2897 4.5804 15.2897 5.20282H14.2782V4.61108C14.2782 3.7169 14.287 2.82273 14.2738 1.92855C14.2695 1.67432 14.3527 1.59981 14.5935 1.62173C14.8124 1.63926 15.0313 1.62173 15.2765 1.62173C15.2853 1.80582 15.294 1.97238 15.3028 2.12141C15.5261 1.97238 15.7231 1.77076 15.9639 1.68309C17.0148 1.29298 17.8555 1.86719 17.8861 2.98929C17.9036 3.65992 17.8861 4.33494 17.8905 5.00557C17.8905 5.16337 17.8467 5.24226 17.6759 5.2335C17.4132 5.22473 17.1505 5.2335 16.8572 5.2335H16.8484Z" fill="white"/>
<path d="M20.8504 3.06389C20.9555 2.68255 20.6271 2.41079 20.3031 2.37572C19.8521 2.32751 19.4536 2.47654 19.0377 2.67378C18.937 2.44147 18.8363 2.22231 18.7312 1.98562C19.4887 1.60428 20.2505 1.4421 21.0605 1.68317C21.5466 1.82782 21.8618 2.21793 21.8749 2.71323C21.8968 3.50659 21.8881 4.29557 21.8881 5.08893C21.8881 5.12838 21.8749 5.16783 21.8662 5.21166H20.8985C20.8898 5.08893 20.881 4.98812 20.8679 4.84347C20.487 5.21166 20.0491 5.28618 19.5762 5.25988C18.9895 5.22481 18.5692 4.84786 18.5254 4.30872C18.4729 3.64686 18.7662 3.23922 19.4055 3.12525C19.6726 3.07704 19.944 3.08142 20.2155 3.07265C20.4257 3.06389 20.6358 3.07265 20.8504 3.07265V3.06389ZM20.8635 3.66439C20.5176 3.66439 20.1892 3.65124 19.8608 3.66877C19.6594 3.68192 19.4843 3.77835 19.4624 4.01943C19.4405 4.26927 19.5543 4.42269 19.782 4.50158C20.3644 4.71198 20.9161 4.29557 20.8635 3.66001V3.66439Z" fill="white"/>
<path d="M10.6879 3.73462H8.11338C8.25787 4.51922 9.00221 4.66825 9.96986 4.11596C10.1144 4.29129 10.2676 4.47539 10.434 4.6814C10.1757 4.98822 9.78596 5.1767 9.35249 5.2293C9.03724 5.26875 8.70448 5.25998 8.3936 5.19423C7.53104 5.01014 7.01438 4.29129 7.0494 3.4015C7.11508 1.63506 8.73513 1.3107 9.75969 1.74902C10.4427 2.0427 10.631 2.65635 10.6836 3.33136C10.6923 3.44971 10.6836 3.56806 10.6836 3.73462H10.6879ZM9.71591 3.12097C9.66775 2.55554 9.35249 2.29254 8.80956 2.33199C8.41112 2.36267 8.08711 2.7221 8.10462 3.12097H9.71153H9.71591Z" fill="white"/>
<path d="M11.5461 2.46344H11.0557V1.79719H11.5417V0.784668H12.5706C12.5706 1.03889 12.5794 1.28435 12.5706 1.52982C12.5619 1.72268 12.6144 1.81034 12.8246 1.79281C13.061 1.77528 13.2975 1.79281 13.5427 1.79281V2.48097H12.5881C12.5881 3.05518 12.5794 3.59431 12.5925 4.13783C12.5969 4.32193 12.7326 4.42712 12.9253 4.40959C13.0742 4.39644 13.223 4.35699 13.4069 4.32631C13.4726 4.54547 13.5427 4.7734 13.6127 5.00132C13.2143 5.30815 12.4436 5.36075 12.0321 5.11529C11.765 4.95749 11.603 4.71641 11.5855 4.41397C11.5592 3.94059 11.5592 3.46281 11.5504 2.98504C11.5504 2.82725 11.5504 2.66507 11.5504 2.47221L11.5461 2.46344Z" fill="white"/>
<path d="M5.35046 5.21174V1.6438H6.33125V5.21174H5.35046Z" fill="white"/>
<path d="M5.28918 0.565435C5.28918 0.214778 5.49497 0 5.82774 0C6.16488 0 6.38819 0.241077 6.38381 0.591735C6.37943 0.894177 6.12986 1.13964 5.82774 1.13964C5.49935 1.13964 5.28918 0.916093 5.28918 0.565435Z" fill="white"/>
</g>
<defs>
<clipPath id="clip0_349_1119">
<rect width="72" height="35" fill="white"/>
</clipPath>
</defs>
</svg>
