<svg width="85" height="33" viewBox="0 0 85 33" fill="none" xmlns="http://www.w3.org/2000/svg">
<g clip-path="url(#clip0_688_1185)">
<path d="M14.9657 28.5077V23.6145C14.9657 20.0273 13.8606 17.7708 11.6505 16.8657C13.8401 15.8243 14.9205 13.6794 14.9205 10.4269V7.92657C14.9205 3.05406 12.468 0.619873 7.5383 0.619873H0V32.3594H4.97487V19.4321H6.7208C8.9104 19.4321 9.99082 20.7836 9.99082 23.4822V28.4622C9.99082 29.6359 10.036 30.4996 10.1017 31.0741C10.1675 31.4295 10.2784 31.8469 10.4345 32.3594H15.4956C15.1423 31.4956 14.9657 30.2145 14.9657 28.5077ZM9.94563 11.5551C9.94563 13.7909 8.95148 14.9192 6.93852 14.9192H4.97076V5.15763H7.40274C9.10347 5.15763 9.94563 6.24041 9.94563 8.4349V11.5551Z" fill="white"/>
<path d="M22.8777 0.619873H17.9028V32.3594H22.8777V0.619873Z" fill="white"/>
<path d="M33.4683 0C29.6765 0 27.3637 1.51259 26.4558 4.53776H33.4683C35.1937 4.53776 35.9578 5.58334 35.9578 7.69518V25.3048C35.9578 27.4167 35.1937 28.4622 33.4683 28.4622C31.7429 28.4622 30.9788 27.4167 30.9788 25.3048V8.2407C30.9788 7.75304 30.7035 7.31083 30.2722 7.0918L26.312 5.07088C26.1066 5.93876 26.0039 6.91409 26.0039 8.00513V24.9949C26.0039 30.3302 28.4277 33 33.4642 33C38.5006 33 40.9244 30.3302 40.9244 24.9949V8.00513C40.9244 2.66976 38.5006 0 33.4642 0H33.4683Z" fill="white"/>
<path d="M45.1435 7.35224C45.1435 7.79445 45.5009 8.00109 46.8607 8.00109C47.9863 8.00109 48.3272 7.8771 48.3272 7.54648C48.3272 7.19933 48.089 7.13734 46.7333 7.07122C44.9134 6.98856 44.1945 6.69927 44.1945 5.757C44.1945 4.81474 45.1312 4.53784 46.6922 4.53784C48.2533 4.53784 49.2228 4.93459 49.2228 5.97191H48.1506C48.1506 5.50904 47.6905 5.39745 46.5772 5.39745C45.5214 5.39745 45.2708 5.50077 45.2708 5.81073C45.2708 6.12068 45.5214 6.19507 46.7374 6.26533C48.3848 6.35625 49.4036 6.44717 49.4036 7.50929C49.4036 8.62926 48.3478 8.8607 46.8032 8.8607C45.0901 8.8607 44.0713 8.56727 44.0713 7.35638H45.1435V7.35224Z" fill="white"/>
<path d="M55.1138 7.9019H52.6161L52.1683 8.79458H50.9893L53.1419 4.5957H54.592L56.7529 8.79458H55.5656L55.1179 7.9019H55.1138ZM54.7153 7.09602L53.869 5.39332L53.0145 7.09602H54.7153Z" fill="white"/>
<path d="M72.5649 6.691C72.5649 5.29827 73.3537 4.53784 75.19 4.53784C77.0263 4.53784 77.815 5.30653 77.815 6.691C77.815 8.07548 77.0222 8.85656 75.19 8.85656C73.3578 8.85656 72.5649 8.08787 72.5649 6.691ZM76.7387 6.691C76.7387 5.83966 76.3074 5.44291 75.19 5.44291C74.0726 5.44291 73.6371 5.83139 73.6371 6.691C73.6371 7.55062 74.0726 7.95149 75.19 7.95149C76.3074 7.95149 76.7387 7.55062 76.7387 6.691Z" fill="white"/>
<path d="M84.9997 4.5957V8.79458H83.5373L80.6904 5.64542V8.79458H79.6182V4.5957H81.0724L83.9234 7.75312V4.5957H84.9956H84.9997Z" fill="white"/>
<path d="M48.1997 14.845H45.702L45.2542 15.7377H44.0752L46.2278 11.5388H47.678L49.8388 15.7377H48.6516L48.2038 14.845H48.1997ZM47.8012 14.0391L46.955 12.3364L46.1005 14.0391H47.8012Z" fill="white"/>
<path d="M59.8422 12.3984V13.2498H63.1821V14.0309H59.8422V14.8822H63.1821V15.7418H58.77V11.543H63.1821V12.4026H59.8422V12.3984Z" fill="white"/>
<path d="M70.7737 11.5388V15.7377H69.3112L66.4643 12.5885V15.7377H65.3921V11.5388H66.8463L69.6973 14.6962V11.5388H70.7696H70.7737Z" fill="white"/>
<path d="M79.2036 11.5388H80.4977L82.1039 13.4523L83.7102 11.5388H85.0042L82.6421 14.3574V15.7377H81.5699V14.3574L79.2077 11.5388H79.2036Z" fill="white"/>
<path d="M63.063 5.40159V4.5957H58.8892V5.40159H60.4379V7.99282H58.8892V8.79458H63.063V7.99282H61.5101V5.40159H63.063Z" fill="white"/>
<path d="M68.0503 7.24893H69.6072C69.5826 7.56715 69.1677 8.02175 68.1283 8.02175C66.7398 8.02175 66.5426 7.22826 66.5426 6.71993C66.5426 6.21161 66.7316 5.44291 68.1283 5.44291C69.1636 5.44291 69.4922 5.83553 69.5867 6.14961H70.6918C70.585 5.15775 69.751 4.53784 68.1283 4.53784C66.4112 4.53784 65.4663 5.30653 65.4663 6.69927C65.4663 8.09201 66.4071 8.8607 67.9476 8.8607C68.8349 8.8607 69.4635 8.5714 69.8578 8.1416L69.9071 8.80284H70.7V6.55462H68.0503V7.25719V7.24893Z" fill="white"/>
<path d="M53.832 14.192H55.389C55.3643 14.5103 54.9494 14.9649 53.9101 14.9649C52.5215 14.9649 52.3244 14.1714 52.3244 13.663C52.3244 13.1547 52.5133 12.386 53.9101 12.386C54.9453 12.386 55.274 12.7786 55.3684 13.0927H56.4735C56.3667 12.1009 55.5328 11.481 53.9101 11.481C52.1929 11.481 51.248 12.2496 51.248 13.6424C51.248 15.0351 52.1888 15.8038 53.7293 15.8038C54.6167 15.8038 55.2452 15.5145 55.6396 15.0847L55.6889 15.746H56.4817V13.4977H53.832V14.2003V14.192Z" fill="white"/>
<path d="M76.6525 14.1879C76.4677 14.688 75.9706 14.8946 75.1983 14.8946C74.1138 14.8946 73.6454 14.4979 73.6454 13.6341C73.6454 12.7704 74.1056 12.386 75.1983 12.386C75.9788 12.386 76.4759 12.5885 76.6567 13.0927H77.7741C77.581 12.0347 76.7511 11.481 75.1983 11.481C73.362 11.481 72.5732 12.2414 72.5732 13.6341C72.5732 15.0269 73.362 15.7997 75.1983 15.7997C76.7429 15.7997 77.5769 15.2459 77.7699 14.1879H76.6484H76.6525Z" fill="white"/>
</g>
<defs>
<clipPath id="clip0_688_1185">
<rect width="85" height="33" fill="white"/>
</clipPath>
</defs>
</svg>
