<svg width="134" height="51" viewBox="0 0 134 51" fill="none" xmlns="http://www.w3.org/2000/svg">
<g clip-path="url(#clip0_342_2219)">
<path d="M67.4556 5.78491V25.6418H129.537C130.123 25.642 130.704 25.5272 131.245 25.304C131.786 25.0808 132.278 24.7535 132.693 24.3408C133.107 23.9282 133.436 23.4383 133.66 22.899C133.885 22.3598 134 21.7819 134 21.1982V5.78491H67.4556Z" fill="#FFF200"/>
<g style="mix-blend-mode:multiply">
<path d="M23.3588 44.06V36.5004C23.3588 30.9586 21.6327 27.4691 18.1837 26.0679C21.5996 24.4597 23.2895 21.1412 23.2895 16.1139V12.2479C23.2895 4.72276 19.4483 0.960205 11.766 0.960205H0V50.0174H7.76266V30.0345H10.4903C13.9047 30.0345 15.5961 32.1213 15.5961 36.2949V43.991C15.5804 45.3383 15.6378 46.6855 15.7678 48.0266C15.9052 48.6969 16.0782 49.3594 16.2859 50.0114H24.1871C23.6339 48.6752 23.3578 46.6914 23.3588 44.06ZM15.5268 17.8527C15.5268 21.3032 13.974 23.0525 10.8352 23.0525H7.76266V7.97224H11.5596C14.2165 7.97224 15.5268 9.64798 15.5268 13.0355V17.8527Z" fill="#231F20"/>
<path d="M35.7106 0.960205H27.948V50.0114H35.7106V0.960205Z" fill="#231F20"/>
<path d="M52.2375 0C46.3169 0 42.7112 2.33734 41.2909 7.01053H52.2375C54.929 7.01053 56.1219 8.62627 56.1219 11.8907V39.1093C56.1219 42.3752 54.929 43.9895 52.2375 43.9895C49.5461 43.9895 48.3547 42.3752 48.3547 39.1093V25.5998V12.7369C48.3552 12.3669 48.2526 12.0041 48.0582 11.6889C47.8638 11.3736 47.5853 11.1184 47.2537 10.9516L41.071 7.83415C40.7363 9.32293 40.5756 10.8453 40.5921 12.3708V38.6247C40.5921 46.8759 44.3725 50.9955 52.2375 50.9955C60.1026 50.9955 63.8846 46.8714 63.8846 38.6247V12.3708C63.8846 4.12411 60.1041 0 52.2375 0Z" fill="#231F20"/>
</g>
<path d="M70.4679 11.3596C70.4679 12.0467 71.0267 12.3603 73.1488 12.3603C74.908 12.3603 75.4397 12.1668 75.4397 11.6567C75.4397 11.1181 75.0661 11.0251 72.953 10.9231C70.1139 10.8016 68.9813 10.3515 68.9813 8.89327C68.9813 7.46506 70.4423 7.0105 72.8822 7.0105C75.3222 7.0105 76.8298 7.62259 76.8298 9.22632H75.1565C75.1565 8.51222 74.4396 8.33669 72.6985 8.33669C71.0508 8.33669 70.6592 8.48672 70.6592 8.97579C70.6592 9.46486 71.0508 9.57588 72.95 9.68089C75.5195 9.82041 77.1115 9.95843 77.1115 11.6012C77.1115 13.3339 75.4638 13.6865 73.0524 13.6865C70.3805 13.6865 68.7885 13.2364 68.7885 11.3596H70.4679Z" fill="#231F20"/>
<path d="M86.0263 12.2133H82.1254L81.4281 13.595H79.5846L82.9448 7.10205H85.204L88.5747 13.595H86.7222L86.0263 12.2133ZM85.3983 10.9696L84.0759 8.33673L82.7444 10.9696H85.3983Z" fill="#231F20"/>
<path d="M113.269 10.3395C113.269 8.18817 114.498 7.0105 117.366 7.0105C120.234 7.0105 121.463 8.19717 121.463 10.3395C121.463 12.4818 120.223 13.6865 117.366 13.6865C114.509 13.6865 113.269 12.4998 113.269 10.3395ZM119.787 10.3395C119.787 9.02229 119.116 8.4102 117.366 8.4102C115.616 8.4102 114.944 9.01029 114.944 10.3395C114.944 11.6687 115.625 12.2898 117.366 12.2898C119.107 12.2898 119.787 11.6657 119.787 10.3395Z" fill="#231F20"/>
<path d="M132.676 7.10205V13.595H130.396L125.956 8.72679V13.595H124.279V7.10205H126.551L131.001 11.9808V7.10205H132.676Z" fill="#231F20"/>
<path d="M75.2333 22.9428H71.3324L70.6381 24.3245H68.7916L72.1518 17.8315H74.411L77.7802 24.3245H75.9277L75.2333 22.9428ZM74.6098 21.6991L73.2874 19.0662L71.9575 21.6991H74.6098Z" fill="#231F20"/>
<path d="M93.408 19.1592V20.4749H98.6207V21.6751H93.408V22.9923H98.6207V24.3185H91.7316V17.8315H98.6207V19.1592H93.408Z" fill="#231F20"/>
<path d="M110.47 17.8315V24.3245H108.188L103.748 19.4563V24.3245H102.071V17.8315H104.343L108.793 22.7103V17.8315H110.47Z" fill="#231F20"/>
<path d="M123.627 17.8315H125.648L128.152 20.7915L130.656 17.8315H132.676L128.991 22.1912V24.3245H127.314V22.1912L123.627 17.8315Z" fill="#231F20"/>
<path d="M98.4355 8.34573V7.10205H91.9169V8.34573H94.3387V12.3513H91.9169V13.595H98.4355V12.3513H96.0136V8.34573H98.4355Z" fill="#231F20"/>
<path d="M106.219 11.2023H108.649C108.612 11.6943 107.96 12.4024 106.34 12.4024C104.171 12.4024 103.864 11.1782 103.864 10.3906C103.864 9.60302 104.165 8.41484 106.34 8.41484C107.954 8.41484 108.466 9.02393 108.615 9.504H110.342C110.176 7.96928 108.875 7.01514 106.34 7.01514C103.659 7.01514 102.187 8.20181 102.187 10.3531C102.187 12.5044 103.659 13.6911 106.061 13.6911C107.448 13.6911 108.426 13.2411 109.04 12.5795L109.114 13.5996H110.354V10.1176H106.219V11.2023Z" fill="#231F20"/>
<path d="M84.0292 21.9317H86.4601C86.4225 22.4238 85.7703 23.1319 84.1512 23.1319C81.9824 23.1319 81.6736 21.9077 81.6736 21.1201C81.6736 20.3325 81.9748 19.1443 84.1512 19.1443C85.7643 19.1443 86.2779 19.7549 86.4255 20.2335H88.1515C87.9859 18.6988 86.6845 17.7446 84.1512 17.7446C81.4703 17.7446 79.9988 18.9313 79.9988 21.0826C79.9988 23.2339 81.4703 24.4206 83.8711 24.4206C85.2582 24.4206 86.2357 23.9705 86.8502 23.3089L86.9255 24.3291H88.1636V20.8531H84.0292V21.9317Z" fill="#231F20"/>
<path d="M119.646 21.9272C119.359 22.7013 118.592 23.0163 117.387 23.0163C115.693 23.0163 114.967 22.4042 114.967 21.066C114.967 19.7279 115.684 19.1368 117.387 19.1368C118.607 19.1368 119.38 19.4488 119.662 20.2259H121.395C121.094 18.5922 119.799 17.7371 117.377 17.7371C114.515 17.7371 113.28 18.9147 113.28 21.066C113.28 23.2174 114.509 24.413 117.377 24.413C119.787 24.413 121.086 23.5564 121.392 21.9242L119.646 21.9272Z" fill="#231F20"/>
</g>
<defs>
<clipPath id="clip0_342_2219">
<rect width="134" height="51" fill="white"/>
</clipPath>
</defs>
</svg>
